<svg id="visual" viewBox="0 0 900 600" width="900" height="600" xmlns="http://www.w3.org/2000/svg" xmlns:xlink="http://www.w3.org/1999/xlink" version="1.1"><g transform="translate(405.98040749407124 310.31252967385166)"><path d="M93.5 -101.4C130.4 -80.4 176 -59.8 183.9 -30.2C191.9 -0.5 162.2 38 133.6 67.5C105.1 97 77.7 117.6 48 125.8C18.2 134.1 -13.8 130 -42.2 118.6C-70.7 107.1 -95.5 88.3 -97.1 65.7C-98.7 43.1 -77.1 16.7 -75.9 -17.4C-74.6 -51.5 -93.9 -93.1 -84.7 -119C-75.4 -144.9 -37.7 -154.9 -4.7 -149.3C28.3 -143.7 56.6 -122.4 93.5 -101.4" fill="#00ba12"></path></g></svg>